# AST/ASF file generated using VICON BodyLanguage
# -----------------------------------------------
:version 1.10
:name VICON
:units
  mass 1.0
  length 0.45
  angle deg
:documentation
   .ast/.asf automatically generated from VICON data using
   VICON BodyBuilder and BodyLanguage model FoxedUp or BRILLIANT.MOD
:root
   order TX TY TZ RX RY RZ
   axis XYZ
   position 0 0 0  
   orientation 0 0 0 
:bonedata
  begin
     id 1 
     name lhipjoint
     direction 0.576517 -0.752066 0.319413 
     length 2.45433 
     axis 0 0 0  XYZ
  end
  begin
     id 2 
     name lfemur
     direction 0.34202 -0.939693 0  
     length 7.54459  
     axis 0 0 20  XYZ
    dof rx ry rz
    limits (-160.0 20.0)
           (-70.0 70.0)
           (-60.0 70.0)
  end
  begin
     id 3 
     name ltibia
     direction 0.34202 -0.939693 0   
     length 7.73986   
     axis 0 0 20   XYZ
    dof rx
    limits (-10.0 170.0)
  end
  begin
     id 4 
     name lfoot
     direction 0.090693 -0.249177 0.964202   
     length 2.28437   
     axis -90 7.62852e-016 20   XYZ
    dof rx rz
    limits (-45.0 90.0)
           (-70.0 20.0)
  end
  begin
     id 5 
     name ltoes
     direction 1.5356e-011 -4.21928e-011 1   
     length 1.14243   
     axis -90 7.62852e-016 20   XYZ
    dof rx
    limits (-90.0 20.0)
  end
  begin
     id 6 
     name rhipjoint
     direction -0.573937 -0.753736 0.320122   
     length 2.44889  
     axis 0 0 0  XYZ 
  end
  begin
     id 7 
     name rfemur
     direction -0.34202 -0.939693 0   
     length 7.50166   
     axis 0 0 -20   XYZ
    dof rx ry rz
    limits (-160.0 20.0)
           (-70.0 70.0)
           (-70.0 60.0)
  end
  begin
     id 8 
     name rtibia
     direction -0.34202 -0.939693 0   
     length 7.54266   
     axis 0 0 -20   XYZ
    dof rx
    limits (-10.0 170.0)
 end
 begin
     id 9 
     name rfoot
     direction -0.114017 -0.31326 0.942798   
     length 2.34212  
     axis -90 -7.62852e-016 -20   XYZ
    dof rx rz
    limits (-45.0 90.0)
           (-20.0 70.0)
  end
  begin
     id 10 
     name rtoes
     direction -1.53557e-011 -4.21867e-011 1   
     length 1.16246   
     axis -90 -7.62852e-016 -20   XYZ
    dof rx
    limits (-90.0 20.0)
  end
  begin
     id 11 
     name lowerback
     direction -0.0228371 0.999155 -0.034167   
     length 2.0537   
     axis 0 0 0   XYZ
    dof rx ry rz
    limits (-20.0 45.0)
           (-30.0 30.0)
           (-30.0 30.0)
  end
  begin
     id 12 
     name upperback
     direction 0.0198981 0.999794 0.00389455   
     length 2.05302   
     axis 0 0 0   XYZ
    dof rx ry rz
    limits (-20.0 45.0)
           (-30.0 30.0)
           (-30.0 30.0)
  end
  begin
     id 13 
     name thorax
     direction 0.0304566 0.99935 0.0192987   
     length 2.05315   
     axis 0 0 0   XYZ
    dof rx ry rz
    limits (-20.0 45.0)
           (-30.0 30.0)
           (-30.0 30.0)
  end
  begin
     id 14 
     name lowerneck
     direction -0.0196762 0.99417 0.106017   
     length 1.82056   
     axis 0 0 0   XYZ
    dof rx ry rz
    limits (-20.0 45.0)
           (-30.0 30.0)
           (-30.0 30.0)
  end
  begin
     id 15 
     name upperneck
     direction 0.00517787 0.9802 -0.197944   
     length 1.83835   
     axis 0 0 0   XYZ
    dof rx ry rz
    limits (-20.0 45.0)
           (-30.0 30.0)
           (-30.0 30.0)
  end
  begin
     id 16
     name head
     direction 0.00211419 0.996945 -0.078081  
     length 1.85629  
     axis 0 0 0   XYZ
    dof rx ry rz
    limits (-20.0 45.0)
           (-30.0 30.0)
           (-30.0 30.0)
  end
  begin
     id 17 
     name lclavicle
     direction 0.930001 0.365811 -0.0357824  
     length 3.81961  
     axis 0 0 0   XYZ
    dof ry rz
    limits (-20.0 10.0)
           (0.0 20.0)
  end
  begin
     id 18 
     name lhumerus
     direction 1 -4.48968e-011 -3.06644e-027   
     length 5.14507   
     axis 180 -30 -90   XYZ
    dof rx ry rz
    limits (-60.0 90.0)
           (-90.0 90.0)
           (-90.0 90.0)
  end
  begin
     id 19
     name lradius
     direction 1 -4.48965e-011 9.06925e-028   
     length 3.50646   
     axis 180 -30 -90   XYZ
    dof rx
    limits (-10.0 170.0)
  end
  begin
     id 20
     name lwrist
     direction 1 -4.48957e-011 1.03922e-027   
     length 1.75323   
     axis -2.56395e-016 90 90   XYZ
    dof ry
    limits (-180.0 0.0)
 end
  begin
     id 21 
     name lhand
     direction 1 -4.48967e-011 2.08017e-027   
     length 0.629969   
     axis -1.32723e-015 90 90   XYZ
    dof rx rz
    limits (-90.0 90.0)
           (-45.0 45.0)
  end
  begin
     id 22 
     name lfingers
     direction 1 -4.49089e-011 4.20095e-027   
     length 0.507897   
     axis -2.6545e-015 90 90   XYZ
    dof rx
    limits (0.0 90.0)
  end
  begin
     id 23
     name lthumb
     direction 0.707107 -6.35001e-011 0.707107   
     length 0.729241   
     axis -90 45 5.05613e-014   XYZ
    dof rx rz
    limits (-45.0 45.0)
           (-45.0 45.0)
  end
  begin
     id 24 
     name rclavicle
     direction -0.881882 0.464123 -0.0829113   
     length 3.47515  
     axis 0 0 0   XYZ 
    dof ry rz
    limits (-10.0 20.0)
           (-20.0 0.0)
  end
  begin
     id 25 
     name rhumerus
     direction -1 -4.48961e-011 -1.55672e-027  
     length 5.232   
     axis 180 30 90   XYZ
    dof rx ry rz
    limits (-90.0 60.0)
           (-90.0 90.0)
           (-90.0 90.0)
  end
  begin
     id 26 
     name rradius
     direction -1 -4.48963e-011 6.18178e-029   
     length 3.65641   
     axis 180 30 90   XYZ
    dof rx
    limits (-10.0 170.0)
  end
  begin
     id 27 
     name rwrist
     direction -1 -4.48982e-011 1.04136e-027   
     length 1.8282   
     axis -2.56395e-016 -90 -90   XYZ
    dof ry
    limits (-180.0 0.0)
  end
  begin
     id 28
     name rhand
     direction -1 -4.48929e-011 2.07378e-027   
     length 0.656807   
     axis -1.32723e-015 -90 -90   XYZ
    dof rx rz
    limits (-90.0 90.0)
           (-45.0 45.0)
  end
  begin
     id 29
     name rfingers
     direction -1 -4.489e-011 4.13816e-027   
     length 0.529535   
     axis -2.6545e-015 -90 -90   XYZ
    dof rx
    limits (0.0 90.0)
  end
  begin
     id 30
     name rthumb
     direction -0.707107 -6.34843e-011 0.707107   
     length 0.760309   
     axis -90 -45 -5.05613e-014   XYZ
    dof rx rz
    limits (-45.0 45.0)
           (-45.0 45.0)
  end
:hierarchy
  begin
    root lhipjoint rhipjoint lowerback
    lhipjoint lfemur
    lfemur ltibia
    ltibia lfoot
    lfoot ltoes
    rhipjoint rfemur
    rfemur rtibia
    rtibia rfoot
    rfoot rtoes
    lowerback upperback
    upperback thorax
    thorax lowerneck lclavicle rclavicle
    lowerneck upperneck
    upperneck head
    lclavicle lhumerus
    lhumerus lradius
    lradius lwrist
    lwrist lhand lthumb
    lhand lfingers
    rclavicle rhumerus
    rhumerus rradius
    rradius rwrist
    rwrist rhand rthumb
    rhand rfingers
  end

#!OML:ASF H:\ManfredETheater\Project 1\Capture day 1\Session 1\subject.ASF
:FULLY-SPECIFIED
:DEGREES
1
root 5.70795 15.3106 36.0896 -157.834 -1.55539 -177.63
lowerback 17.4576 1.81673 3.41706
upperback 0.516066 3.0083 1.39425
thorax -9.14464 1.23052 -1.16246
lowerneck -18.601 -1.83502 -1.62042
upperneck -1.1297 -2.73039 0.083813
head 2.90584 -1.62593 0.0779747
rclavicle -1.74931e-014 1.03368e-014
rhumerus -35.7615 2.9176 -90.5706
rradius 76.492
rwrist -15.6597
rhand -31.3686 2.93264
rfingers 7.12502
rthumb -4.63908 -26.9966
lclavicle -1.74931e-014 1.03368e-014
lhumerus -54.0103 -2.46475 94.5803
lradius 81.8343
lwrist 10.9929
lhand -26.3675 -9.50028
lfingers 7.12502
lthumb 0.190795 20.4794
rfemur -14.1819 -8.89847 19.3003
rtibia 77.8493
rfoot 8.17455 -3.72771
rtoes -7.03106
lfemur -59.409 3.02085 -33.754
ltibia 69.0689
lfoot -25.6707 -5.37017
ltoes 27.3117
2
root 5.6934 15.2681 35.6624 -157.972 -1.64248 -178.199
lowerback 17.7486 1.72295 3.10413
upperback 0.424485 2.83363 1.21943
thorax -9.42185 1.15531 -1.14454
lowerneck -18.5002 -1.90746 -1.93256
upperneck -1.27638 -2.78284 0.349738
head 2.84552 -1.64343 0.21924
rclavicle 4.92986e-014 1.59028e-014
rhumerus -36.7958 2.02144 -90.2214
rradius 74.4798
rwrist -16.8567
rhand -31.5201 3.23571
rfingers 7.12502
rthumb -4.78533 -26.6903
lclavicle 4.92986e-014 1.59028e-014
lhumerus -51.7459 -2.66336 95.0986
lradius 80.3155
lwrist 11.1147
lhand -26.4687 -9.67226
lfingers 7.12502
lthumb 0.0930295 20.3075
rfemur -17.4247 -9.91707 18.2906
rtibia 81.8198
rfoot 5.74943 -3.13698
rtoes -7.40104
lfemur -57.3209 1.61392 -33.5411
ltibia 69.3104
lfoot -27.7536 -4.53517
ltoes 26.731
3
root 5.6815 15.2233 35.2433 -157.972 -1.58809 -178.551
lowerback 17.9681 1.68791 2.84606
upperback 0.257541 2.75316 1.10229
thorax -9.73917 1.12462 -1.11685
lowerneck -18.5048 -2.00399 -2.05294
upperneck -1.26837 -2.88715 0.36465
head 2.8526 -1.69517 0.236779
rclavicle 1.55052e-014 -1.66979e-014
rhumerus -38.0174 1.25794 -89.7915
rradius 72.7832
rwrist -17.775
rhand -31.9178 2.74108
rfingers 7.12502
rthumb -5.16938 -27.1759
lclavicle 1.55052e-014 -1.66979e-014
lhumerus -49.6588 -2.82403 95.6099
lradius 79.1379
lwrist 11.3003
lhand -26.6856 -10.0199
lfingers 7.12502
lthumb -0.116444 19.9599
rfemur -21.0166 -10.7287 17.5945
rtibia 85.498
rfoot 4.77893 -2.67537
rtoes -5.48596
lfemur -55.5274 0.342536 -33.1517
ltibia 69.6413
lfoot -29.461 -3.53585
ltoes 25.7011
4
root 5.66564 15.1761 34.8342 -157.671 -1.01275 -178.574
lowerback 17.8316 1.87267 2.6729
upperback 0.155462 2.95855 0.93039
thorax -9.76722 1.23146 -1.25616
lowerneck -18.8049 -2.09427 -2.16505
upperneck -1.31928 -3.00765 0.579724
head 2.89783 -1.75425 0.314197
rclavicle 5.36719e-014 2.06736e-014
rhumerus -38.9965 0.377697 -89.3717
rradius 71.0841
rwrist -17.8781
rhand -32.3143 2.8734
rfingers 7.12502
rthumb -5.55217 -27.0339
lclavicle 5.36719e-014 2.06736e-014
lhumerus -47.5569 -3.09509 96.0372
lradius 78.5942
lwrist 11.5786
lhand -26.4097 -10.233
lfingers 7.12502
lthumb 0.150065 19.7467
rfemur -25.2935 -10.7787 17.1731
rtibia 88.9629
rfoot 3.09458 -2.5059
rtoes -6.45057
lfemur -54.2863 -0.284106 -32.7819
ltibia 69.9385
lfoot -30.7721 -3.13622
ltoes 25.3006
5
root 5.65977 15.1941 34.3897 -157.803 -0.697401 -178.916
lowerback 17.985 1.83974 2.03675
upperback 0.084655 2.78611 0.788648
thorax -9.96166 1.177 -1.01405
lowerneck -18.9199 -2.02238 -2.18346
upperneck -1.26696 -2.91975 0.847767
head 2.94247 -1.6991 0.412101
rclavicle -3.18055e-015 1.19271e-015
rhumerus -40.4268 -0.0512008 -89.0766
rradius 70.0996
rwrist -16.1264
rhand -33.0302 3.34886
rfingers 7.12502
rthumb -6.24334 -26.5391
lclavicle -3.18055e-015 1.19271e-015
lhumerus -46.5877 -2.91142 96.3559
lradius 80.072
lwrist 11.1557
lhand -26.2557 -10.2601
lfingers 7.12502
lthumb 0.298774 19.7195
rfemur -28.9659 -11.1216 16.6307
rtibia 91.5565
rfoot 0.852458 -2.59002
rtoes -6.50355
lfemur -52.135 -0.128835 -32.9911
ltibia 69.9194
lfoot -32.0644 -3.41691
ltoes 24.9473
6
root 5.65375 15.161 33.9646 -157.816 -0.400482 -179.252
lowerback 18.0393 1.82747 1.55978
upperback 0.013071 2.66653 0.622681
thorax -10.0887 1.14146 -0.897645
lowerneck -19.1161 -1.99868 -2.21855
upperneck -1.23545 -2.89479 1.03981
head 2.99437 -1.68153 0.481884
rclavicle -5.96354e-015 -1.47101e-014
rhumerus -41.6837 -0.623534 -88.6911
rradius 68.9299
rwrist -15.5141
rhand -33.3761 3.5522
rfingers 7.12502
rthumb -6.57733 -26.3257
lclavicle -5.96354e-015 -1.47101e-014
lhumerus -45.2114 -2.97885 96.6986
lradius 80.7677
lwrist 11.1283
lhand -26.1035 -10.3396
lfingers 7.12502
lthumb 0.445738 19.6397
rfemur -32.7938 -11.5174 16.1139
rtibia 94.1417
rfoot -0.663366 -2.56726
rtoes -6.28519
lfemur -50.2369 -0.463372 -33.1242
ltibia 69.9214
lfoot -33.2853 -3.24452
ltoes 24.3048
7
root 5.64914 15.1326 33.5359 -157.837 -0.116393 -179.598
lowerback 18.0471 1.78002 1.04874
upperback -0.0464685 2.48943 0.457729
thorax -10.1777 1.08111 -0.743465
lowerneck -19.3609 -1.93116 -2.19535
upperneck -1.16723 -2.82307 1.21006
head 3.0662 -1.64142 0.537714
rclavicle -3.08116e-014 -3.97569e-016
rhumerus -42.9923 -1.08587 -88.328
rradius 68.0446
rwrist -14.7864
rhand -33.6944 3.72928
rfingers 7.12502
rthumb -6.88456 -26.1388
lclavicle -3.08116e-014 -3.97569e-016
lhumerus -44.0834 -3.04023 97.0084
lradius 82.0253
lwrist 11.1808
lhand -25.9247 -10.3529
lfingers 7.12502
lthumb 0.618445 19.626
rfemur -36.6452 -11.8548 15.6755
rtibia 96.2818
rfoot -2.02864 -2.67576
rtoes -5.94742
lfemur -48.2454 -0.614289 -33.3507
ltibia 69.74
lfoot -34.2824 -3.1991
ltoes 23.4916
8
root 5.64516 15.1102 33.1014 -157.865 0.119626 -179.95
lowerback 17.9994 1.51848 0.47889
upperback -0.0961552 2.28088 0.303091
thorax -10.2268 1.12236 -0.554395
lowerneck -19.6329 -1.8136 -2.12105
upperneck -1.07326 -2.69563 1.35275
head 3.14997 -1.57457 0.580218
rclavicle -6.36111e-015 -2.78299e-015
rhumerus -44.3551 -1.43289 -87.9924
rradius 67.4715
rwrist -14.1008
rhand -33.9393 3.98277
rfingers 7.12502
rthumb -7.12094 -25.8774
lclavicle -6.36111e-015 -2.78299e-015
lhumerus -43.2032 -3.11927 97.2949
lradius 83.8191
lwrist 11.4209
lhand -25.7111 -10.3377
lfingers 7.12502
lthumb 0.824817 19.6405
rfemur -40.4612 -12.1486 15.3214
rtibia 98.0245
rfoot -3.36454 -2.93875
rtoes -5.53907
lfemur -46.1655 -0.62682 -33.6301
ltibia 69.444
lfoot -35.1248 -3.26375
ltoes 22.4831
